<svg height="256px" width="256px" version="1.1" id="Layer_1" xmlns="http://www.w3.org/2000/svg" xmlns:xlink="http://www.w3.org/1999/xlink" viewBox="-66.56 -66.56 645.12 645.12" xml:space="preserve" fill="#000000" stroke="#000000" stroke-width="0.00512"><g id="SVGRepo_bgCarrier" stroke-width="0"><path transform="translate(-66.56, -66.56), scale(40.32)" fill="#ce58d0" d="M9.166.33a2.25 2.25 0 00-2.332 0l-5.25 3.182A2.25 2.25 0 00.5 5.436v5.128a2.25 2.25 0 001.084 1.924l5.25 3.182a2.25 2.25 0 002.332 0l5.25-3.182a2.25 2.25 0 001.084-1.924V5.436a2.25 2.25 0 00-1.084-1.924L9.166.33z" strokewidth="0"></path></g><g id="SVGRepo_tracerCarrier" stroke-linecap="round" stroke-linejoin="round"></g><g id="SVGRepo_iconCarrier"> <g> <g> <path style="fill:#238fd1;" d="M432,8H80C66.766,8,56,18.766,56,32v456c0,13.234,10.766,24,24,24h352c13.234,0,24-10.766,24-24V32 C456,18.766,445.234,8,432,8z"></path> </g> <g> <path style="fill:#E3001E;" d="M95.781,8H80C66.766,8,56,18.766,56,32v456c0,13.234,10.766,24,24,24h15.781V8z"></path> </g> <g> <path style="fill:#c346b9;" d="M400,0h-80c-4.418,0-8,3.582-8,8v119.996c0,2.883,1.547,5.543,4.055,6.961 c2.508,1.422,5.586,1.391,8.063-0.102L360,113.325l35.883,21.531c1.266,0.762,2.695,1.141,4.117,1.141 c1.359,0,2.719-0.344,3.945-1.039c2.508-1.418,4.055-4.078,4.055-6.961V8C408,3.582,404.418,0,400,0z"></path> </g> <g> <g> <path style="fill:#c20098;" d="M96,480c-4.422,0-8-3.582-8-8V48c0-4.418,3.578-8,8-8s8,3.582,8,8v424 C104,476.418,100.422,480,96,480z"></path> </g> </g> <g> <path style="fill:#ed07c3;" d="M355.781,344h-0.572c-0.071-0.272-0.084-0.545-0.17-0.816L309.76,199.801 c5.679-0.948,10.021-5.85,10.021-11.801c0-6.629-5.375-12-12-12h-64c-6.625,0-12,5.371-12,12c0,5.951,4.343,10.853,10.021,11.801 l-45.279,143.383c-0.086,0.271-0.1,0.544-0.17,0.816h-0.572c-6.625,0-12,5.371-12,12s5.375,12,12,12h32c6.625,0,12-5.371,12-12 c0-5.951-4.342-10.853-10.021-11.801L238.665,316h74.231l8.905,28.199c-5.678,0.948-10.021,5.85-10.021,11.801 c0,6.629,5.375,12,12,12h32c6.625,0,12-5.371,12-12S362.406,344,355.781,344z M248.77,284l26.269-83.184 c0.086-0.271,0.1-0.544,0.17-0.816h1.144c0.071,0.272,0.084,0.545,0.17,0.816L302.792,284H248.77z"></path> </g> </g> </g></svg>